<svg width="2349" height="2348" xmlns="http://www.w3.org/2000/svg" xmlns:xlink="http://www.w3.org/1999/xlink" xml:space="preserve" overflow="hidden"><g transform="translate(-1025 -64)"><rect x="1342" y="650" width="1787" height="1344" fill="#FFFFFF"/><path d="M-0.831562 1172.67-0.831562-0.831208 1173.17-0.831208 2347.17-0.831208 2347.17 1172.67 2347.17 2346.17 1173.17 2346.17-0.831562 2346.17-0.831562 1172.67ZM876.458 1437.62C939.744 1301.94 992.941 1191 994.317 1191 995.693 1191 1050.27 1301.48 1115.84 1436.71 1181.42 1571.93 1237.37 1683.32 1239.66 1684.24 1242.42 1685.16 1329.09 1685.62 1432.73 1685.16L1621.21 1683.78 1368.07 1200.17 1114.47 716.563 993.858 716.563 872.789 716.563 667.34 1113.08C554.525 1331.27 441.711 1549.47 416.489 1598.06L370.629 1686.08 566.449 1685.16 761.81 1683.78 876.458 1437.62ZM1780.8 1133.71C1861.52 1112.62 1925.72 1049.36 1950.03 966.848 1954.15 953.096 1957.36 925.134 1957.36 904.506 1957.36 797.241 1888.12 706.478 1783.56 675.765 1769.8 671.639 1741.82 668.43 1721.19 668.43 1590.03 668.43 1485.01 773.404 1485.01 904.506 1485.01 1010.85 1557.47 1105.74 1659.74 1133.25 1692.75 1141.96 1747.33 1142.41 1780.8 1133.71Z" fill-rule="evenodd" transform="matrix(1 0 0 -1 1026 2411)"/></g></svg>